<svg xmlns="http://www.w3.org/2000/svg" width="162" height="162" viewBox="0 0 162 162">
  <g id="Group_68" data-name="Group 68" transform="translate(-690 -938)">
    <g id="Group_17" data-name="Group 17" transform="translate(552 -8)">
      <circle id="Ellipse_1" data-name="Ellipse 1" cx="81" cy="81" r="81" transform="translate(138 946)" fill="#7ed1a1"/>
    </g>
    <path id="Icon_awesome-paint-brush" data-name="Icon awesome-paint-brush" d="M16.963,31.417c-4.075.262-7.772,1.814-9.871,7.343A1.55,1.55,0,0,1,5.61,39.773c-1.128,0-4.617-2.81-5.611-3.489C0,44.648,3.852,52,13,52c7.7,0,13-4.445,13-12.206a8.8,8.8,0,0,0-.1-.927l-8.938-7.448ZM46.5,0A6.2,6.2,0,0,0,42.42,1.671C21.66,20.216,19.5,20.651,19.5,26.11a9.4,9.4,0,0,0,.887,3.93l6.482,5.4a9.345,9.345,0,0,0,2.274.308c6.308,0,9.964-4.618,21.445-26.046A10.45,10.45,0,0,0,52,5.032,5.288,5.288,0,0,0,46.5,0Z" transform="translate(757.001 975.001)" fill="#fff"/>
    <path id="Icon_ionic-ios-laptop" data-name="Icon ionic-ios-laptop" d="M93.081,62.252V11.514A3.684,3.684,0,0,0,89.42,7.875h-74.4a3.67,3.67,0,0,0-3.661,3.639V62.252H1.118c0,2.107,2.107,4,4.022,4.831a28.238,28.238,0,0,0,10.471,2.086H88.824A28.19,28.19,0,0,0,99.1,67.3c2.022-.851,4.214-2.852,4.214-5.044H93.081ZM52.218,9.578a.851.851,0,1,1-.851.851A.854.854,0,0,1,52.218,9.578ZM15.186,13.025H89.25a.427.427,0,0,1,.426.426v44.97a.427.427,0,0,1-.426.426H15.186a.427.427,0,0,1-.426-.426V13.451A.414.414,0,0,1,15.186,13.025ZM61.22,63.955H43.215a2.536,2.536,0,0,1-2.064-1.6H63.285A2.113,2.113,0,0,1,61.22,63.955Z" transform="translate(719.682 985.126)" fill="#fff"/>
  </g>
</svg>
