<svg xmlns="http://www.w3.org/2000/svg" width="162" height="162" viewBox="0 0 162 162">
  <g id="Group_69" data-name="Group 69" transform="translate(-955 -938)">
    <g id="Group_18" data-name="Group 18" transform="translate(817 -8)">
      <circle id="Ellipse_1" data-name="Ellipse 1" cx="81" cy="81" r="81" transform="translate(138 946)" fill="#7ed1a1"/>
    </g>
    <path id="Icon_ionic-ios-laptop" data-name="Icon ionic-ios-laptop" d="M93.081,62.252V11.514A3.684,3.684,0,0,0,89.42,7.875h-74.4a3.67,3.67,0,0,0-3.661,3.639V62.252H1.118c0,2.107,2.107,4,4.022,4.831a28.238,28.238,0,0,0,10.471,2.086H88.824A28.19,28.19,0,0,0,99.1,67.3c2.022-.851,4.214-2.852,4.214-5.044H93.081ZM52.218,9.578a.851.851,0,1,1-.851.851A.854.854,0,0,1,52.218,9.578ZM15.186,13.025H89.25a.427.427,0,0,1,.426.426v44.97a.427.427,0,0,1-.426.426H15.186a.427.427,0,0,1-.426-.426V13.451A.414.414,0,0,1,15.186,13.025ZM61.22,63.955H43.215a2.536,2.536,0,0,1-2.064-1.6H63.285A2.113,2.113,0,0,1,61.22,63.955Z" transform="translate(986.882 981.478)" fill="#fff"/>
    <path id="Icon_awesome-cogs" data-name="Icon awesome-cogs" d="M36.007,13.43l-.577,1.005a.869.869,0,0,1-1.062.38,7.77,7.77,0,0,1-2.257-1.308.873.873,0,0,1-.2-1.1l.577-1.005a6.07,6.07,0,0,1-1.118-1.927h-1.16a.868.868,0,0,1-.858-.724,7.921,7.921,0,0,1,0-2.609.874.874,0,0,1,.858-.731h1.16A6.07,6.07,0,0,1,32.491,3.48l-.577-1.005a.865.865,0,0,1,.2-1.1A7.863,7.863,0,0,1,34.369.063a.869.869,0,0,1,1.062.38l.577,1.005a6.248,6.248,0,0,1,2.229,0L38.813.443a.869.869,0,0,1,1.062-.38,7.77,7.77,0,0,1,2.257,1.308.873.873,0,0,1,.2,1.1L41.752,3.48A6.07,6.07,0,0,1,42.87,5.407h1.16a.868.868,0,0,1,.858.724,7.921,7.921,0,0,1,0,2.609.874.874,0,0,1-.858.731H42.87A6.07,6.07,0,0,1,41.752,11.4l.577,1.005a.865.865,0,0,1-.2,1.1,7.863,7.863,0,0,1-2.257,1.308.869.869,0,0,1-1.062-.38l-.577-1.005a6.248,6.248,0,0,1-2.229,0ZM35.269,9.3a2.627,2.627,0,0,0,3.713-3.713A2.627,2.627,0,0,0,35.269,9.3ZM27.162,20.116l2.37,1.181a1.691,1.691,0,0,1,.738,2.046,16.6,16.6,0,0,1-3,4.627,1.681,1.681,0,0,1-2.13.373L23.1,27.162a12.078,12.078,0,0,1-3.86,2.229v2.362a1.683,1.683,0,0,1-1.385,1.659,15.812,15.812,0,0,1-5.337,0,1.689,1.689,0,0,1-1.406-1.659V29.391a12.211,12.211,0,0,1-3.86-2.229L5.2,28.336a1.682,1.682,0,0,1-2.13-.373,16.574,16.574,0,0,1-2.967-4.62A1.7,1.7,0,0,1,.844,21.3l2.341-1.181a12.181,12.181,0,0,1,0-4.458L.844,14.47a1.677,1.677,0,0,1-.738-2.039A16.508,16.508,0,0,1,3.073,7.8,1.681,1.681,0,0,1,5.2,7.432L7.249,8.613a12.078,12.078,0,0,1,3.86-2.229V4.015a1.675,1.675,0,0,1,1.378-1.652,16.035,16.035,0,0,1,5.344-.007,1.689,1.689,0,0,1,1.406,1.659V6.377A12.211,12.211,0,0,1,23.1,8.606l2.046-1.181a1.682,1.682,0,0,1,2.13.373,16.486,16.486,0,0,1,2.96,4.627,1.681,1.681,0,0,1-.7,2.046l-2.37,1.181a12.219,12.219,0,0,1,0,4.465ZM18.893,21.6c4.163-5.414-2.018-11.595-7.432-7.432C7.3,19.582,13.479,25.762,18.893,21.6ZM36.007,34.446l-.577,1.005a.869.869,0,0,1-1.062.38,7.77,7.77,0,0,1-2.257-1.308.873.873,0,0,1-.2-1.1l.577-1.005a6.07,6.07,0,0,1-1.118-1.927h-1.16a.868.868,0,0,1-.858-.724,7.921,7.921,0,0,1,0-2.609.874.874,0,0,1,.858-.731h1.16A6.07,6.07,0,0,1,32.491,24.5l-.577-1.005a.865.865,0,0,1,.2-1.1,7.863,7.863,0,0,1,2.257-1.308.869.869,0,0,1,1.062.38l.577,1.005a6.248,6.248,0,0,1,2.229,0l.577-1.005a.869.869,0,0,1,1.062-.38,7.77,7.77,0,0,1,2.257,1.308.873.873,0,0,1,.2,1.1L41.752,24.5a6.07,6.07,0,0,1,1.118,1.927h1.16a.868.868,0,0,1,.858.724,7.921,7.921,0,0,1,0,2.609.874.874,0,0,1-.858.731H42.87a6.07,6.07,0,0,1-1.118,1.927l.577,1.005a.865.865,0,0,1-.2,1.1,7.863,7.863,0,0,1-2.257,1.308.869.869,0,0,1-1.062-.38l-.577-1.005A6.248,6.248,0,0,1,36.007,34.446ZM35.269,30.3a2.627,2.627,0,0,0,3.713-3.712A2.627,2.627,0,0,0,35.269,30.3Z" transform="translate(1016.603 1001.053)" fill="#fff"/>
  </g>
</svg>
