<svg xmlns="http://www.w3.org/2000/svg" width="31.5" height="31.5" viewBox="0 0 150 150">
  <g id="Group_2" data-name="Group 2" transform="translate(-112 277)">
    <rect id="Rectangle_2" data-name="Rectangle 2" width="150" height="150" rx="22" transform="translate(112 -277)" fill="#fff"/>
    <g id="Icon_feather-globe" data-name="Icon feather-globe" transform="translate(123.5 -265.5)">
      <path id="Path_1" data-name="Path 1" d="M63.369,1.5A61.884,61.884,0,0,1,87.452,120.373,61.883,61.883,0,0,1,39.285,6.364,61.486,61.486,0,0,1,63.369,1.5Zm0,112.488A50.62,50.62,0,0,0,99.162,27.575,50.62,50.62,0,1,0,27.575,99.162,50.289,50.289,0,0,0,63.369,113.988Z"/>
      <path id="Path_2" data-name="Path 2" d="M119.613,27.749H7.124a5.624,5.624,0,1,1,0-11.249H119.613a5.624,5.624,0,0,1,0,11.249Z" transform="translate(0 41.244)"/>
      <path id="Path_3" data-name="Path 3" d="M38.622,1.5a5.624,5.624,0,0,1,4.153,1.831,91.647,91.647,0,0,1,23.968,59.92q0,.117,0,.234a91.647,91.647,0,0,1-23.968,59.92,5.624,5.624,0,0,1-8.306,0A91.648,91.648,0,0,1,10.5,63.486q0-.117,0-.234A91.648,91.648,0,0,1,34.469,3.331,5.624,5.624,0,0,1,38.622,1.5ZM55.494,63.369A80.406,80.406,0,0,0,38.622,15.846,80.406,80.406,0,0,0,21.75,63.369a80.406,80.406,0,0,0,16.872,47.522A80.406,80.406,0,0,0,55.494,63.369Z" transform="translate(24.747 0)"/>
    </g>
  </g>
</svg>
